<svg width="1467" height="155" viewBox="0 0 1467 155" fill="none" xmlns="http://www.w3.org/2000/svg">
<circle cx="103.769" cy="82.5" r="64.6622" stroke="black" stroke-width="15.6757"/>
<line x1="3.00205" y1="130.191" x2="191.776" y2="18.268" stroke="black" stroke-width="11.7568"/>
<line x1="14.602" y1="148.751" x2="203.376" y2="36.828" stroke="black" stroke-width="11.7568"/>
<path d="M257.512 98.392C256.984 97.72 256.384 97.336 255.712 97.24C255.04 97.096 254.512 97.024 254.128 97.024V139H228.784V48.136L226.048 32.296C228.208 32.056 230.656 31.816 233.392 31.576C236.128 31.288 238.912 31.048 241.744 30.856C244.576 30.664 247.336 30.52 250.024 30.424C252.76 30.28 255.184 30.208 257.296 30.208C263.872 30.208 269.848 30.88 275.224 32.224C280.648 33.52 285.28 35.488 289.12 38.128C293.008 40.72 296.008 43.96 298.12 47.848C300.28 51.688 301.36 56.128 301.36 61.168C301.36 66.352 300.544 70.816 298.912 74.56C297.328 78.256 295.168 81.424 292.432 84.064C289.696 86.656 286.528 88.792 282.928 90.472C279.376 92.152 275.656 93.52 271.768 94.576L281.848 96.952L313.24 139H286.744L257.512 98.392ZM254.128 57.64V81.256H258.736C261.952 81.256 264.736 80.752 267.088 79.744C269.488 78.688 271.456 77.296 272.992 75.568C274.576 73.84 275.752 71.824 276.52 69.52C277.288 67.216 277.672 64.792 277.672 62.248C277.672 58.888 277.096 56.104 275.944 53.896C274.84 51.688 273.4 49.936 271.624 48.64C269.848 47.296 267.832 46.36 265.576 45.832C263.368 45.304 261.184 45.04 259.024 45.04H255.208C254.824 45.04 254.44 45.064 254.056 45.112C253.72 45.112 253.336 45.136 252.904 45.184L254.128 57.64ZM385.8 127.624C384.024 129.448 382.104 131.128 380.04 132.664C377.976 134.2 375.696 135.52 373.2 136.624C370.704 137.728 367.968 138.592 364.992 139.216C362.016 139.84 358.728 140.152 355.128 140.152C348.216 140.152 342.312 139.024 337.416 136.768C332.52 134.512 328.512 131.512 325.392 127.768C322.32 123.976 320.064 119.632 318.624 114.736C317.232 109.84 316.536 104.728 316.536 99.4C316.536 95.992 316.872 92.632 317.544 89.32C318.216 85.96 319.224 82.792 320.568 79.816C321.96 76.792 323.664 73.984 325.68 71.392C327.744 68.8 330.144 66.568 332.88 64.696C335.616 62.824 338.688 61.36 342.096 60.304C345.552 59.2 349.344 58.648 353.472 58.648C359.232 58.648 364.224 59.512 368.448 61.24C372.672 62.92 376.152 65.296 378.888 68.368C381.624 71.392 383.664 75.04 385.008 79.312C386.352 83.584 387.024 88.312 387.024 93.496C387.024 94.792 386.928 96.496 386.736 98.608C386.592 100.72 386.4 103 386.16 105.448H337.92C338.016 108.04 338.568 110.512 339.576 112.864C340.584 115.168 341.904 117.184 343.536 118.912C345.216 120.64 347.16 122.032 349.368 123.088C351.576 124.096 353.976 124.6 356.568 124.6C358.68 124.6 360.672 124.36 362.544 123.88C364.464 123.4 366.192 122.824 367.728 122.152C369.312 121.432 370.704 120.712 371.904 119.992C373.104 119.224 374.04 118.552 374.712 117.976L385.8 127.624ZM366.576 90.616C366.576 88.408 366.408 86.32 366.072 84.352C365.736 82.384 365.112 80.656 364.2 79.168C363.288 77.632 362.04 76.432 360.456 75.568C358.92 74.656 356.928 74.2 354.48 74.2C352.416 74.2 350.592 74.56 349.008 75.28C347.472 76 346.128 76.912 344.976 78.016C343.872 79.072 342.96 80.2 342.24 81.4C341.52 82.6 340.968 83.656 340.584 84.568L334.032 91.984L346.488 90.688L366.576 90.616ZM462.884 139H438.476V127.336L429.836 139.864C429.452 139.96 428.996 140.032 428.468 140.08C427.94 140.176 427.172 140.224 426.164 140.224C422.036 140.224 418.124 139.648 414.428 138.496C410.732 137.296 407.492 135.568 404.708 133.312C401.924 131.008 399.692 128.176 398.012 124.816C396.38 121.456 395.564 117.592 395.564 113.224C395.564 110.152 396.02 107.368 396.932 104.872C397.844 102.376 399.092 100.144 400.676 98.176C402.308 96.208 404.18 94.504 406.292 93.064C408.404 91.624 410.66 90.448 413.06 89.536C415.508 88.576 418.004 87.88 420.548 87.448C423.14 86.968 425.66 86.728 428.108 86.728C430.268 86.728 432.188 86.8 433.868 86.944C435.596 87.088 437.108 87.28 438.404 87.52C438.356 85.6 438.212 83.848 437.972 82.264C437.732 80.632 437.3 79.216 436.676 78.016C436.052 76.816 435.212 75.88 434.156 75.208C433.1 74.536 431.756 74.2 430.124 74.2C426.044 74.2 422.132 74.68 418.388 75.64C414.644 76.552 411.26 77.56 408.236 78.664L400.748 65.344C404.492 63.664 408.164 62.32 411.764 61.312C414.068 60.64 416.78 60.016 419.9 59.44C423.068 58.864 426.692 58.576 430.772 58.576C437.012 58.576 442.1 59.344 446.036 60.88C450.02 62.368 453.116 64.504 455.324 67.288C457.58 70.024 459.116 73.336 459.932 77.224C460.796 81.064 461.228 85.312 461.228 89.968V124.24L462.884 139ZM438.476 101.92C437.324 101.776 436.052 101.656 434.66 101.56C433.316 101.416 432.02 101.344 430.772 101.344C429.044 101.344 427.34 101.584 425.66 102.064C424.028 102.544 422.564 103.264 421.268 104.224C419.972 105.184 418.916 106.408 418.1 107.896C417.284 109.384 416.876 111.136 416.876 113.152C416.876 114.784 417.14 116.296 417.668 117.688C418.196 119.08 418.892 120.304 419.756 121.36C420.62 122.368 421.58 123.16 422.636 123.736C423.74 124.312 424.844 124.6 425.948 124.6C427.34 124.6 428.66 124.384 429.908 123.952C431.204 123.52 432.38 122.992 433.436 122.368C434.54 121.696 435.5 120.976 436.316 120.208C437.18 119.44 437.9 118.744 438.476 118.12V101.92ZM477.772 39.712L476.26 23.8L501.316 21.568V109.984C501.316 112.048 501.388 113.944 501.532 115.672C501.676 117.4 501.964 118.888 502.396 120.136C502.876 121.336 503.548 122.272 504.412 122.944C505.276 123.616 506.428 123.952 507.868 123.952C508.54 123.952 509.212 123.904 509.884 123.808C510.604 123.664 511.276 123.496 511.9 123.304C512.572 123.112 513.172 122.944 513.7 122.8C514.228 122.608 514.66 122.44 514.996 122.296L519.028 136.48C518.5 136.768 517.756 137.128 516.796 137.56C515.836 137.944 514.708 138.352 513.412 138.784C512.116 139.168 510.652 139.504 509.02 139.792C507.436 140.08 505.756 140.224 503.98 140.224C498.652 140.224 494.284 139.456 490.876 137.92C487.468 136.336 484.78 134.176 482.812 131.44C480.892 128.656 479.572 125.392 478.852 121.648C478.132 117.856 477.772 113.776 477.772 109.408V39.712ZM630.588 54.184C628.38 52.888 626.364 51.784 624.54 50.872C622.764 49.912 621.108 49.12 619.572 48.496C618.036 47.824 616.572 47.344 615.18 47.056C613.836 46.72 612.492 46.552 611.148 46.552C609.372 46.552 607.644 46.768 605.964 47.2C604.284 47.584 602.796 48.232 601.5 49.144C600.204 50.008 599.148 51.184 598.332 52.672C597.564 54.112 597.18 55.888 597.18 58C597.18 59.968 597.636 61.696 598.548 63.184C599.46 64.672 600.66 66.016 602.148 67.216C603.684 68.416 605.436 69.52 607.404 70.528C609.372 71.488 611.412 72.448 613.524 73.408C615.924 74.512 618.348 75.664 620.796 76.864C623.292 78.016 625.692 79.312 627.996 80.752C630.3 82.144 632.46 83.68 634.476 85.36C636.492 87.04 638.244 88.936 639.732 91.048C641.268 93.16 642.468 95.512 643.332 98.104C644.196 100.696 644.628 103.576 644.628 106.744C644.628 112.312 643.476 117.184 641.172 121.36C638.868 125.536 635.796 129.016 631.956 131.8C628.164 134.584 623.772 136.696 618.78 138.136C613.836 139.528 608.724 140.224 603.444 140.224C597.396 140.224 591.804 139.384 586.668 137.704C581.58 135.976 576.468 133.504 571.332 130.288L581.268 113.944C582.564 114.808 584.1 115.768 585.876 116.824C587.652 117.832 589.524 118.768 591.492 119.632C593.508 120.496 595.524 121.24 597.54 121.864C599.556 122.44 601.476 122.728 603.3 122.728C605.412 122.728 607.5 122.464 609.564 121.936C611.628 121.408 613.452 120.568 615.036 119.416C616.668 118.216 617.964 116.704 618.924 114.88C619.932 113.008 620.436 110.728 620.436 108.04C620.436 105.448 619.836 103.192 618.636 101.272C617.484 99.304 615.948 97.576 614.028 96.088C612.156 94.552 610.02 93.184 607.62 91.984C605.22 90.736 602.796 89.536 600.348 88.384C596.892 86.752 593.484 85.072 590.124 83.344C586.812 81.568 583.812 79.576 581.124 77.368C578.484 75.16 576.348 72.664 574.716 69.88C573.084 67.048 572.268 63.76 572.268 60.016C572.268 55.168 573.324 50.872 575.436 47.128C577.596 43.336 580.428 40.168 583.932 37.624C587.436 35.032 591.396 33.088 595.812 31.792C600.276 30.448 604.812 29.776 609.42 29.776C615.036 29.776 620.436 30.664 625.62 32.44C630.804 34.216 636.06 36.88 641.388 40.432L630.588 54.184ZM681.896 111.064C681.896 113.512 681.968 115.576 682.112 117.256C682.256 118.888 682.496 120.208 682.832 121.216C683.216 122.224 683.696 122.944 684.272 123.376C684.848 123.808 685.568 124.024 686.432 124.024C687.44 124.024 688.4 123.928 689.312 123.736C690.224 123.544 691.04 123.328 691.76 123.088C692.624 122.8 693.416 122.464 694.136 122.08L700.976 133.816C700.4 134.392 699.512 135.064 698.312 135.832C697.16 136.552 695.792 137.248 694.208 137.92C692.624 138.544 690.848 139.072 688.88 139.504C686.96 139.936 684.968 140.152 682.904 140.152C677.72 140.152 673.568 139.336 670.448 137.704C667.328 136.072 664.928 133.864 663.248 131.08C661.568 128.296 660.464 125.056 659.936 121.36C659.408 117.616 659.144 113.656 659.144 109.48V75.928H648.344V59.8H659.144V46.912L681.608 33.664V59.8H702.488L700.544 75.928H681.896V111.064ZM776.056 139H751.648V127.336L743.008 139.864C742.624 139.96 742.168 140.032 741.64 140.08C741.112 140.176 740.344 140.224 739.336 140.224C735.208 140.224 731.296 139.648 727.6 138.496C723.904 137.296 720.664 135.568 717.88 133.312C715.096 131.008 712.864 128.176 711.184 124.816C709.552 121.456 708.736 117.592 708.736 113.224C708.736 110.152 709.192 107.368 710.104 104.872C711.016 102.376 712.264 100.144 713.848 98.176C715.48 96.208 717.352 94.504 719.464 93.064C721.576 91.624 723.832 90.448 726.232 89.536C728.68 88.576 731.176 87.88 733.72 87.448C736.312 86.968 738.832 86.728 741.28 86.728C743.44 86.728 745.36 86.8 747.04 86.944C748.768 87.088 750.28 87.28 751.576 87.52C751.528 85.6 751.384 83.848 751.144 82.264C750.904 80.632 750.472 79.216 749.848 78.016C749.224 76.816 748.384 75.88 747.328 75.208C746.272 74.536 744.928 74.2 743.296 74.2C739.216 74.2 735.304 74.68 731.56 75.64C727.816 76.552 724.432 77.56 721.408 78.664L713.92 65.344C717.664 63.664 721.336 62.32 724.936 61.312C727.24 60.64 729.952 60.016 733.072 59.44C736.24 58.864 739.864 58.576 743.944 58.576C750.184 58.576 755.272 59.344 759.208 60.88C763.192 62.368 766.288 64.504 768.496 67.288C770.752 70.024 772.288 73.336 773.104 77.224C773.968 81.064 774.4 85.312 774.4 89.968V124.24L776.056 139ZM751.648 101.92C750.496 101.776 749.224 101.656 747.832 101.56C746.488 101.416 745.192 101.344 743.944 101.344C742.216 101.344 740.512 101.584 738.832 102.064C737.2 102.544 735.736 103.264 734.44 104.224C733.144 105.184 732.088 106.408 731.272 107.896C730.456 109.384 730.048 111.136 730.048 113.152C730.048 114.784 730.312 116.296 730.84 117.688C731.368 119.08 732.064 120.304 732.928 121.36C733.792 122.368 734.752 123.16 735.808 123.736C736.912 124.312 738.016 124.6 739.12 124.6C740.512 124.6 741.832 124.384 743.08 123.952C744.376 123.52 745.552 122.992 746.608 122.368C747.712 121.696 748.672 120.976 749.488 120.208C750.352 119.44 751.072 118.744 751.648 118.12V101.92ZM814.56 123.736C815.952 123.976 817.44 124.192 819.024 124.384C820.608 124.528 822.12 124.6 823.56 124.6C826.584 124.6 829.056 123.712 830.976 121.936C832.944 120.112 834.48 117.808 835.584 115.024C836.736 112.192 837.528 109.096 837.96 105.736C838.44 102.328 838.68 99.064 838.68 95.944C838.68 92.008 838.392 88.672 837.816 85.936C837.24 83.152 836.472 80.896 835.512 79.168C834.6 77.44 833.496 76.192 832.2 75.424C830.952 74.608 829.656 74.2 828.312 74.2C825.384 74.2 822.816 74.704 820.608 75.712C818.4 76.72 816.384 77.992 814.56 79.528V123.736ZM791.016 38.344L789.432 23.728L814.56 21.496V68.872L821.544 60.088C822.936 59.704 824.4 59.368 825.936 59.08C827.52 58.744 828.984 58.576 830.328 58.576C834.744 58.576 838.872 59.416 842.712 61.096C846.6 62.728 849.984 65.152 852.864 68.368C855.744 71.536 858.024 75.472 859.704 80.176C861.384 84.88 862.224 90.256 862.224 96.304C862.224 102.88 861.24 108.88 859.272 114.304C857.304 119.68 854.568 124.288 851.064 128.128C847.608 131.968 843.456 134.944 838.608 137.056C833.808 139.12 828.576 140.152 822.912 140.152C819.84 140.152 816.72 139.984 813.552 139.648C810.432 139.36 807.432 138.976 804.552 138.496C801.72 138.016 799.104 137.488 796.704 136.912C794.352 136.288 792.456 135.688 791.016 135.112V38.344ZM877.288 39.712L875.776 23.8L900.832 21.568V109.984C900.832 112.048 900.904 113.944 901.048 115.672C901.192 117.4 901.48 118.888 901.912 120.136C902.392 121.336 903.064 122.272 903.928 122.944C904.792 123.616 905.944 123.952 907.384 123.952C908.056 123.952 908.728 123.904 909.4 123.808C910.12 123.664 910.792 123.496 911.416 123.304C912.088 123.112 912.688 122.944 913.216 122.8C913.744 122.608 914.176 122.44 914.512 122.296L918.544 136.48C918.016 136.768 917.272 137.128 916.312 137.56C915.352 137.944 914.224 138.352 912.928 138.784C911.632 139.168 910.168 139.504 908.536 139.792C906.952 140.08 905.272 140.224 903.496 140.224C898.168 140.224 893.8 139.456 890.392 137.92C886.984 136.336 884.296 134.176 882.328 131.44C880.408 128.656 879.088 125.392 878.368 121.648C877.648 117.856 877.288 113.776 877.288 109.408V39.712ZM990.488 127.624C988.712 129.448 986.792 131.128 984.728 132.664C982.664 134.2 980.384 135.52 977.888 136.624C975.392 137.728 972.656 138.592 969.68 139.216C966.704 139.84 963.416 140.152 959.816 140.152C952.904 140.152 947 139.024 942.104 136.768C937.208 134.512 933.2 131.512 930.08 127.768C927.008 123.976 924.752 119.632 923.312 114.736C921.92 109.84 921.224 104.728 921.224 99.4C921.224 95.992 921.56 92.632 922.232 89.32C922.904 85.96 923.912 82.792 925.256 79.816C926.648 76.792 928.352 73.984 930.368 71.392C932.432 68.8 934.832 66.568 937.568 64.696C940.304 62.824 943.376 61.36 946.784 60.304C950.24 59.2 954.032 58.648 958.16 58.648C963.92 58.648 968.912 59.512 973.136 61.24C977.36 62.92 980.84 65.296 983.576 68.368C986.312 71.392 988.352 75.04 989.696 79.312C991.04 83.584 991.712 88.312 991.712 93.496C991.712 94.792 991.616 96.496 991.424 98.608C991.28 100.72 991.088 103 990.848 105.448H942.608C942.704 108.04 943.256 110.512 944.264 112.864C945.272 115.168 946.592 117.184 948.224 118.912C949.904 120.64 951.848 122.032 954.056 123.088C956.264 124.096 958.664 124.6 961.256 124.6C963.368 124.6 965.36 124.36 967.232 123.88C969.152 123.4 970.88 122.824 972.416 122.152C974 121.432 975.392 120.712 976.592 119.992C977.792 119.224 978.728 118.552 979.4 117.976L990.488 127.624ZM971.264 90.616C971.264 88.408 971.096 86.32 970.76 84.352C970.424 82.384 969.8 80.656 968.888 79.168C967.976 77.632 966.728 76.432 965.144 75.568C963.608 74.656 961.616 74.2 959.168 74.2C957.104 74.2 955.28 74.56 953.696 75.28C952.16 76 950.816 76.912 949.664 78.016C948.56 79.072 947.648 80.2 946.928 81.4C946.208 82.6 945.656 83.656 945.272 84.568L938.72 91.984L951.176 90.688L971.264 90.616ZM1054.92 31.504C1057.27 31.264 1059.76 31.072 1062.4 30.928C1065.04 30.784 1067.64 30.664 1070.18 30.568C1072.77 30.472 1075.2 30.4 1077.45 30.352C1079.76 30.304 1081.7 30.28 1083.28 30.28C1091.35 30.28 1098.79 31.24 1105.6 33.16C1112.47 35.032 1118.4 38.008 1123.39 42.088C1128.38 46.12 1132.29 51.352 1135.12 57.784C1137.96 64.168 1139.37 71.872 1139.37 80.896C1139.37 87.856 1138.68 94.144 1137.28 99.76C1135.89 105.328 1133.92 110.272 1131.38 114.592C1128.88 118.864 1125.88 122.56 1122.38 125.68C1118.88 128.752 1115.01 131.272 1110.79 133.24C1106.61 135.208 1102.15 136.672 1097.4 137.632C1092.64 138.544 1087.75 139 1082.71 139H1057.36V48.136L1054.92 31.504ZM1082.64 57.856V122.44C1087.68 122.104 1091.95 121.24 1095.45 119.848C1099 118.408 1101.93 116.632 1104.24 114.52C1106.59 112.36 1108.41 109.96 1109.71 107.32C1111.05 104.632 1112.04 101.872 1112.66 99.04C1113.33 96.208 1113.74 93.424 1113.88 90.688C1114.03 87.904 1114.1 85.336 1114.1 82.984C1114.1 77.608 1113.67 72.664 1112.8 68.152C1111.99 63.64 1110.43 59.752 1108.12 56.488C1105.82 53.224 1102.63 50.704 1098.55 48.928C1094.47 47.104 1089.19 46.192 1082.71 46.192H1081.92C1081.68 46.192 1081.41 46.216 1081.12 46.264L1082.64 57.856ZM1185 140.224C1179.24 140.224 1173.99 139.192 1169.24 137.128C1164.48 135.016 1160.38 132.136 1156.92 128.488C1153.52 124.792 1150.85 120.448 1148.93 115.456C1147.06 110.464 1146.12 105.04 1146.12 99.184C1146.12 93.376 1147.04 88 1148.86 83.056C1150.68 78.064 1153.28 73.768 1156.64 70.168C1160.04 66.52 1164.12 63.688 1168.88 61.672C1173.68 59.608 1179.05 58.576 1185 58.576C1190.76 58.576 1196.02 59.608 1200.77 61.672C1205.57 63.688 1209.68 66.52 1213.08 70.168C1216.54 73.768 1219.2 78.064 1221.08 83.056C1223 88 1223.96 93.376 1223.96 99.184C1223.96 105.04 1223.04 110.464 1221.22 115.456C1219.4 120.448 1216.78 124.792 1213.37 128.488C1210.01 132.136 1205.93 135.016 1201.13 137.128C1196.33 139.192 1190.96 140.224 1185 140.224ZM1200.48 100.984C1200.48 97.72 1200.2 94.504 1199.62 91.336C1199.04 88.168 1198.11 85.336 1196.81 82.84C1195.56 80.296 1193.93 78.256 1191.92 76.72C1189.95 75.184 1187.55 74.416 1184.72 74.416C1182.08 74.416 1179.8 75.088 1177.88 76.432C1175.96 77.728 1174.37 79.48 1173.12 81.688C1171.92 83.896 1171.04 86.416 1170.46 89.248C1169.88 92.032 1169.6 94.912 1169.6 97.888C1169.6 101.2 1169.88 104.44 1170.46 107.608C1171.04 110.776 1171.95 113.608 1173.2 116.104C1174.49 118.552 1176.12 120.544 1178.09 122.08C1180.06 123.616 1182.44 124.384 1185.22 124.384C1187.86 124.384 1190.14 123.736 1192.06 122.44C1193.98 121.096 1195.56 119.32 1196.81 117.112C1198.06 114.904 1198.97 112.408 1199.55 109.624C1200.17 106.84 1200.48 103.96 1200.48 100.984ZM1237.15 39.712L1235.64 23.8L1260.69 21.568V109.984C1260.69 112.048 1260.76 113.944 1260.91 115.672C1261.05 117.4 1261.34 118.888 1261.77 120.136C1262.25 121.336 1262.92 122.272 1263.79 122.944C1264.65 123.616 1265.8 123.952 1267.24 123.952C1267.92 123.952 1268.59 123.904 1269.26 123.808C1269.98 123.664 1270.65 123.496 1271.28 123.304C1271.95 123.112 1272.55 122.944 1273.08 122.8C1273.6 122.608 1274.04 122.44 1274.37 122.296L1278.4 136.48C1277.88 136.768 1277.13 137.128 1276.17 137.56C1275.21 137.944 1274.08 138.352 1272.79 138.784C1271.49 139.168 1270.03 139.504 1268.4 139.792C1266.81 140.08 1265.13 140.224 1263.36 140.224C1258.03 140.224 1253.66 139.456 1250.25 137.92C1246.84 136.336 1244.16 134.176 1242.19 131.44C1240.27 128.656 1238.95 125.392 1238.23 121.648C1237.51 117.856 1237.15 113.776 1237.15 109.408V39.712ZM1280.32 39.712L1278.81 23.8L1303.86 21.568V109.984C1303.86 112.048 1303.94 113.944 1304.08 115.672C1304.22 117.4 1304.51 118.888 1304.94 120.136C1305.42 121.336 1306.1 122.272 1306.96 122.944C1307.82 123.616 1308.98 123.952 1310.42 123.952C1311.09 123.952 1311.76 123.904 1312.43 123.808C1313.15 123.664 1313.82 123.496 1314.45 123.304C1315.12 123.112 1315.72 122.944 1316.25 122.8C1316.78 122.608 1317.21 122.44 1317.54 122.296L1321.58 136.48C1321.05 136.768 1320.3 137.128 1319.34 137.56C1318.38 137.944 1317.26 138.352 1315.96 138.784C1314.66 139.168 1313.2 139.504 1311.57 139.792C1309.98 140.08 1308.3 140.224 1306.53 140.224C1301.2 140.224 1296.83 139.456 1293.42 137.92C1290.02 136.336 1287.33 134.176 1285.36 131.44C1283.44 128.656 1282.12 125.392 1281.4 121.648C1280.68 117.856 1280.32 113.776 1280.32 109.408V39.712ZM1391.43 139H1367.02V127.336L1358.38 139.864C1358 139.96 1357.54 140.032 1357.02 140.08C1356.49 140.176 1355.72 140.224 1354.71 140.224C1350.58 140.224 1346.67 139.648 1342.98 138.496C1339.28 137.296 1336.04 135.568 1333.26 133.312C1330.47 131.008 1328.24 128.176 1326.56 124.816C1324.93 121.456 1324.11 117.592 1324.11 113.224C1324.11 110.152 1324.57 107.368 1325.48 104.872C1326.39 102.376 1327.64 100.144 1329.22 98.176C1330.86 96.208 1332.73 94.504 1334.84 93.064C1336.95 91.624 1339.21 90.448 1341.61 89.536C1344.06 88.576 1346.55 87.88 1349.1 87.448C1351.69 86.968 1354.21 86.728 1356.66 86.728C1358.82 86.728 1360.74 86.8 1362.42 86.944C1364.14 87.088 1365.66 87.28 1366.95 87.52C1366.9 85.6 1366.76 83.848 1366.52 82.264C1366.28 80.632 1365.85 79.216 1365.22 78.016C1364.6 76.816 1363.76 75.88 1362.7 75.208C1361.65 74.536 1360.3 74.2 1358.67 74.2C1354.59 74.2 1350.68 74.68 1346.94 75.64C1343.19 76.552 1339.81 77.56 1336.78 78.664L1329.3 65.344C1333.04 63.664 1336.71 62.32 1340.31 61.312C1342.62 60.64 1345.33 60.016 1348.45 59.44C1351.62 58.864 1355.24 58.576 1359.32 58.576C1365.56 58.576 1370.65 59.344 1374.58 60.88C1378.57 62.368 1381.66 64.504 1383.87 67.288C1386.13 70.024 1387.66 73.336 1388.48 77.224C1389.34 81.064 1389.78 85.312 1389.78 89.968V124.24L1391.43 139ZM1367.02 101.92C1365.87 101.776 1364.6 101.656 1363.21 101.56C1361.86 101.416 1360.57 101.344 1359.32 101.344C1357.59 101.344 1355.89 101.584 1354.21 102.064C1352.58 102.544 1351.11 103.264 1349.82 104.224C1348.52 105.184 1347.46 106.408 1346.65 107.896C1345.83 109.384 1345.42 111.136 1345.42 113.152C1345.42 114.784 1345.69 116.296 1346.22 117.688C1346.74 119.08 1347.44 120.304 1348.3 121.36C1349.17 122.368 1350.13 123.16 1351.18 123.736C1352.29 124.312 1353.39 124.6 1354.5 124.6C1355.89 124.6 1357.21 124.384 1358.46 123.952C1359.75 123.52 1360.93 122.992 1361.98 122.368C1363.09 121.696 1364.05 120.976 1364.86 120.208C1365.73 119.44 1366.45 118.744 1367.02 118.12V101.92ZM1453.84 76.576C1452.88 76.096 1452.02 75.712 1451.25 75.424C1450.48 75.088 1449.71 74.824 1448.94 74.632C1448.18 74.44 1447.36 74.32 1446.5 74.272C1445.68 74.224 1444.72 74.2 1443.62 74.2C1442.27 74.2 1440.9 74.536 1439.51 75.208C1438.17 75.832 1436.85 76.696 1435.55 77.8C1434.3 78.904 1433.15 80.176 1432.1 81.616C1431.04 83.008 1430.15 84.472 1429.43 86.008V139H1405.96V60.304L1429.43 57.928V74.56L1436.2 59.8C1436.97 59.512 1438.05 59.248 1439.44 59.008C1440.88 58.72 1442.22 58.576 1443.47 58.576C1446.11 58.576 1448.27 58.792 1449.95 59.224C1451.68 59.608 1453.31 60.184 1454.85 60.952L1453.84 76.576Z" fill="black"/>
<line x1="1092" y1="14.0159" x2="1090.89" y2="154.011" stroke="black" stroke-width="4"/>
<line x1="1105" y1="14.0159" x2="1103.89" y2="154.011" stroke="black" stroke-width="4"/>
</svg>
