<svg width="489" height="155" viewBox="0 0 489 155" fill="none" xmlns="http://www.w3.org/2000/svg">
<circle cx="103.769" cy="82.5" r="64.6622" stroke="black" stroke-width="15.6757"/>
<line x1="3.00205" y1="130.191" x2="191.776" y2="18.268" stroke="black" stroke-width="11.7568"/>
<line x1="14.602" y1="148.751" x2="203.376" y2="36.8279" stroke="black" stroke-width="11.7568"/>
<path d="M257.512 98.392C256.984 97.72 256.384 97.336 255.712 97.24C255.04 97.096 254.512 97.024 254.128 97.024V139H228.784V48.136L226.048 32.296C228.208 32.056 230.656 31.816 233.392 31.576C236.128 31.288 238.912 31.048 241.744 30.856C244.576 30.664 247.336 30.52 250.024 30.424C252.76 30.28 255.184 30.208 257.296 30.208C263.872 30.208 269.848 30.88 275.224 32.224C280.648 33.52 285.28 35.488 289.12 38.128C293.008 40.72 296.008 43.96 298.12 47.848C300.28 51.688 301.36 56.128 301.36 61.168C301.36 66.352 300.544 70.816 298.912 74.56C297.328 78.256 295.168 81.424 292.432 84.064C289.696 86.656 286.528 88.792 282.928 90.472C279.376 92.152 275.656 93.52 271.768 94.576L281.848 96.952L313.24 139H286.744L257.512 98.392ZM254.128 57.64V81.256H258.736C261.952 81.256 264.736 80.752 267.088 79.744C269.488 78.688 271.456 77.296 272.992 75.568C274.576 73.84 275.752 71.824 276.52 69.52C277.288 67.216 277.672 64.792 277.672 62.248C277.672 58.888 277.096 56.104 275.944 53.896C274.84 51.688 273.4 49.936 271.624 48.64C269.848 47.296 267.832 46.36 265.576 45.832C263.368 45.304 261.184 45.04 259.024 45.04H255.208C254.824 45.04 254.44 45.064 254.056 45.112C253.72 45.112 253.336 45.136 252.904 45.184L254.128 57.64ZM375.072 54.184C372.864 52.888 370.848 51.784 369.024 50.872C367.248 49.912 365.592 49.12 364.056 48.496C362.52 47.824 361.056 47.344 359.664 47.056C358.32 46.72 356.976 46.552 355.632 46.552C353.856 46.552 352.128 46.768 350.448 47.2C348.768 47.584 347.28 48.232 345.984 49.144C344.688 50.008 343.632 51.184 342.816 52.672C342.048 54.112 341.664 55.888 341.664 58C341.664 59.968 342.12 61.696 343.032 63.184C343.944 64.672 345.144 66.016 346.632 67.216C348.168 68.416 349.92 69.52 351.888 70.528C353.856 71.488 355.896 72.448 358.008 73.408C360.408 74.512 362.832 75.664 365.28 76.864C367.776 78.016 370.176 79.312 372.48 80.752C374.784 82.144 376.944 83.68 378.96 85.36C380.976 87.04 382.728 88.936 384.216 91.048C385.752 93.16 386.952 95.512 387.816 98.104C388.68 100.696 389.112 103.576 389.112 106.744C389.112 112.312 387.96 117.184 385.656 121.36C383.352 125.536 380.28 129.016 376.44 131.8C372.648 134.584 368.256 136.696 363.264 138.136C358.32 139.528 353.208 140.224 347.928 140.224C341.88 140.224 336.288 139.384 331.152 137.704C326.064 135.976 320.952 133.504 315.816 130.288L325.752 113.944C327.048 114.808 328.584 115.768 330.36 116.824C332.136 117.832 334.008 118.768 335.976 119.632C337.992 120.496 340.008 121.24 342.024 121.864C344.04 122.44 345.96 122.728 347.784 122.728C349.896 122.728 351.984 122.464 354.048 121.936C356.112 121.408 357.936 120.568 359.52 119.416C361.152 118.216 362.448 116.704 363.408 114.88C364.416 113.008 364.92 110.728 364.92 108.04C364.92 105.448 364.32 103.192 363.12 101.272C361.968 99.304 360.432 97.576 358.512 96.088C356.64 94.552 354.504 93.184 352.104 91.984C349.704 90.736 347.28 89.536 344.832 88.384C341.376 86.752 337.968 85.072 334.608 83.344C331.296 81.568 328.296 79.576 325.608 77.368C322.968 75.16 320.832 72.664 319.2 69.88C317.568 67.048 316.752 63.76 316.752 60.016C316.752 55.168 317.808 50.872 319.92 47.128C322.08 43.336 324.912 40.168 328.416 37.624C331.92 35.032 335.88 33.088 340.296 31.792C344.76 30.448 349.296 29.776 353.904 29.776C359.52 29.776 364.92 30.664 370.104 32.44C375.288 34.216 380.544 36.88 385.872 40.432L375.072 54.184ZM399.884 31.504C402.236 31.264 404.732 31.072 407.372 30.928C410.012 30.784 412.604 30.664 415.148 30.568C417.74 30.472 420.164 30.4 422.42 30.352C424.724 30.304 426.668 30.28 428.252 30.28C436.316 30.28 443.756 31.24 450.572 33.16C457.436 35.032 463.364 38.008 468.356 42.088C473.348 46.12 477.26 51.352 480.092 57.784C482.924 64.168 484.34 71.872 484.34 80.896C484.34 87.856 483.644 94.144 482.252 99.76C480.86 105.328 478.892 110.272 476.348 114.592C473.852 118.864 470.852 122.56 467.348 125.68C463.844 128.752 459.98 131.272 455.756 133.24C451.58 135.208 447.116 136.672 442.364 137.632C437.612 138.544 432.716 139 427.676 139H402.332V48.136L399.884 31.504ZM427.604 57.856V122.44C432.644 122.104 436.916 121.24 440.42 119.848C443.972 118.408 446.9 116.632 449.204 114.52C451.556 112.36 453.38 109.96 454.676 107.32C456.02 104.632 457.004 101.872 457.628 99.04C458.3 96.208 458.708 93.424 458.852 90.688C458.996 87.904 459.068 85.336 459.068 82.984C459.068 77.608 458.636 72.664 457.772 68.152C456.956 63.64 455.396 59.752 453.092 56.488C450.788 53.224 447.596 50.704 443.516 48.928C439.436 47.104 434.156 46.192 427.676 46.192H426.884C426.644 46.192 426.38 46.216 426.092 46.264L427.604 57.856Z" fill="black"/>
<line x1="437" y1="14.0159" x2="435.889" y2="154.011" stroke="black" stroke-width="4"/>
<line x1="450" y1="14.0159" x2="448.889" y2="154.011" stroke="black" stroke-width="4"/>
</svg>
